<svg xmlns="http://www.w3.org/2000/svg" width="23" height="23" fill="none"><g clip-path="url(#a)"><path fill="#1877F2" d="M23 11.5C23 5.149 17.851 0 11.5 0S0 5.149 0 11.5c0 5.74 4.205 10.498 9.703 11.36v-8.036h-2.92V11.5h2.92V8.966c0-2.882 1.717-4.474 4.344-4.474 1.258 0 2.574.225 2.574.225v2.83h-1.45c-1.429 0-1.874.886-1.874 1.796V11.5h3.19l-.51 3.324h-2.68v8.036C18.795 21.998 23 17.24 23 11.5"/><path fill="#fff" d="m15.977 14.824.51-3.324h-3.19V9.343c0-.91.445-1.796 1.874-1.796h1.45v-2.83s-1.316-.225-2.574-.225c-2.627 0-4.344 1.592-4.344 4.474V11.5h-2.92v3.324h2.92v8.036a11.6 11.6 0 0 0 3.594 0v-8.036z"/></g><defs><clipPath id="a"><path fill="#fff" d="M0 0h23v23H0z"/></clipPath></defs></svg>