<svg xmlns="http://www.w3.org/2000/svg" width="118" height="117" fill="none"><path fill="#FA7353" fill-rule="evenodd" d="M37.686 17.063c-12.439 0-20.478 8.448-20.478 21.528v39.818c0 13.08 8.039 21.528 20.478 21.528h42.618c12.444 0 20.488-8.448 20.488-21.528V38.59c0-13.08-8.044-21.528-20.483-21.528zm42.618 90.187H37.686c-16.662 0-27.853-11.593-27.853-28.84V38.59c0-17.247 11.19-28.84 27.853-28.84H80.31c16.662 0 27.858 11.593 27.858 28.84v39.82c0 17.247-11.196 28.84-27.863 28.84" clip-rule="evenodd"/><path fill="#FA7353" fill-rule="evenodd" d="M53.166 73.724c-.939 0-1.888-.356-2.605-1.072L38.887 61.084a3.63 3.63 0 0 1 0-5.168 3.705 3.705 0 0 1 5.212 0l9.066 8.98 20.729-20.548a3.705 3.705 0 0 1 5.212 0 3.63 3.63 0 0 1 0 5.167L55.772 72.652a3.67 3.67 0 0 1-2.606 1.072" clip-rule="evenodd"/></svg>