<svg xmlns="http://www.w3.org/2000/svg" width="20" height="20" fill="none"><path fill="#130F26" fill-rule="evenodd" d="M14.906 10.122a.626.626 0 0 1-.086-1.244 1.78 1.78 0 0 0 1.522-1.75c0-.87-.623-1.604-1.482-1.745a.625.625 0 0 1 .203-1.233 3.01 3.01 0 0 1 2.53 2.98 3.035 3.035 0 0 1-2.6 2.986 1 1 0 0 1-.087.006" clip-rule="evenodd"/><mask id="a" width="4" height="5" x="15" y="11" maskUnits="userSpaceOnUse" style="mask-type:luminance"><path fill="#fff" fill-rule="evenodd" d="M15.815 11.668h3.162v3.775h-3.162z" clip-rule="evenodd"/></mask><g mask="url(#a)"><path fill="#130F26" fill-rule="evenodd" d="M17.385 15.443a.625.625 0 0 1-.223-1.21c.565-.215.565-.452.565-.566 0-.365-.464-.62-1.38-.757a.626.626 0 0 1-.525-.712.63.63 0 0 1 .712-.525c2.019.303 2.443 1.251 2.443 1.994 0 .453-.178 1.28-1.37 1.735a.6.6 0 0 1-.222.04" clip-rule="evenodd"/></g><path fill="#130F26" fill-rule="evenodd" d="M9.906 13.262c-1.98 0-4.341.243-4.341 1.401 0 1.168 2.36 1.413 4.34 1.413s4.34-.243 4.34-1.399c0-1.17-2.36-1.415-4.34-1.415m0 4.064c-1.383 0-5.591 0-5.591-2.663 0-2.652 4.208-2.652 5.59-2.652 1.383 0 5.59 0 5.59 2.666 0 2.649-4.06 2.649-5.59 2.649M9.906 4.583a2.56 2.56 0 0 0-2.557 2.558c-.003.683.26 1.322.738 1.805a2.53 2.53 0 0 0 1.798.752l.02.625v-.625a2.56 2.56 0 0 0 2.558-2.557 2.56 2.56 0 0 0-2.557-2.558m0 6.365h-.023a3.77 3.77 0 0 1-2.682-1.121 3.77 3.77 0 0 1-1.102-2.689 3.81 3.81 0 0 1 3.807-3.805c2.1 0 3.807 1.709 3.807 3.808s-1.707 3.807-3.807 3.807M4.905 10.122a1 1 0 0 1-.087-.006A3.034 3.034 0 0 1 2.22 7.131a3.01 3.01 0 0 1 2.53-2.982.625.625 0 0 1 .203 1.233c-.86.142-1.483.877-1.483 1.747a1.776 1.776 0 0 0 1.522 1.749.625.625 0 0 1-.086 1.244M2.427 15.443a.6.6 0 0 1-.223-.041c-1.192-.455-1.37-1.283-1.37-1.735 0-.742.424-1.691 2.444-1.993a.63.63 0 0 1 .71.524.627.627 0 0 1-.525.712c-.915.137-1.38.392-1.38.757 0 .114 0 .35.566.566a.625.625 0 0 1-.222 1.21" clip-rule="evenodd"/></svg>