<svg xmlns="http://www.w3.org/2000/svg" width="22" height="22" fill="none"><path fill="#130F26" fill-rule="evenodd" d="M18.944 9.08H2.605a.688.688 0 0 1 0-1.376h16.34a.688.688 0 0 1 0 1.375M14.851 12.659a.69.69 0 0 1-.691-.688c0-.38.303-.687.683-.687h.008a.688.688 0 0 1 0 1.375M10.783 12.659a.69.69 0 0 1-.691-.688c0-.38.303-.687.683-.687h.008a.688.688 0 0 1 0 1.375M6.707 12.659a.69.69 0 0 1-.692-.688c0-.38.304-.687.684-.687h.008a.688.688 0 0 1 0 1.375M14.851 16.222a.69.69 0 0 1-.691-.688c0-.38.303-.687.683-.687h.008a.688.688 0 0 1 0 1.375M10.783 16.222a.69.69 0 0 1-.691-.688c0-.38.303-.687.683-.687h.008a.688.688 0 0 1 0 1.375M6.707 16.222a.69.69 0 0 1-.692-.688c0-.38.304-.687.684-.687h.008a.688.688 0 0 1 0 1.375M14.477 5.309a.69.69 0 0 1-.687-.688V1.604a.688.688 0 0 1 1.375 0v3.017c0 .38-.308.688-.688.688M7.072 5.309a.69.69 0 0 1-.687-.688V1.604a.688.688 0 0 1 1.375 0v3.017c0 .38-.308.688-.688.688" clip-rule="evenodd"/><mask id="a" width="19" height="19" x="1" y="2" maskUnits="userSpaceOnUse" style="mask-type:luminance"><path fill="#fff" fill-rule="evenodd" d="M1.833 2.364h17.875v18.261H1.833z" clip-rule="evenodd"/></mask><g mask="url(#a)"><path fill="#130F26" fill-rule="evenodd" d="M6.894 3.74c-2.377 0-3.686 1.267-3.686 3.569v8.295c0 2.352 1.31 3.646 3.686 3.646h7.753c2.377 0 3.686-1.27 3.686-3.577V7.31c.004-1.132-.3-2.012-.904-2.617-.622-.624-1.58-.953-2.773-.953zm7.753 16.885H6.894c-3.121 0-5.06-1.924-5.06-5.021V7.309c0-3.05 1.939-4.945 5.06-4.945h7.762c1.566 0 2.861.47 3.746 1.356.859.863 1.31 2.103 1.306 3.59v8.363c0 3.055-1.94 4.952-5.06 4.952" clip-rule="evenodd"/></g></svg>