<svg xmlns="http://www.w3.org/2000/svg" width="166" height="166" fill="none"><rect width="165.337" height="165.337" x=".337" fill="#FADCD5" rx="19.402"/><path fill="#363344" d="M63.004 145.539q-.567 0-.871-.324t-.304-.89v-12.168q0-.586.324-.891.324-.324.891-.324.506 0 .79.203.303.181.546.648l5 9.252h-.647l5-9.252q.244-.466.527-.648.283-.203.79-.203.566 0 .87.324.304.304.304.891v12.168q0 .566-.304.89-.283.324-.87.324-.567 0-.87-.324-.305-.324-.305-.89v-9.374h.446l-4.252 7.754q-.202.344-.425.506t-.607.162-.628-.162a1.6 1.6 0 0 1-.425-.506l-4.292-7.774h.486v9.394q0 .566-.304.89-.283.324-.87.324M84 145.58q-1.68 0-2.895-.628a4.53 4.53 0 0 1-1.882-1.781q-.648-1.155-.648-2.734 0-1.538.627-2.692a4.7 4.7 0 0 1 1.762-1.802q1.133-.668 2.57-.668 1.054 0 1.884.344a3.86 3.86 0 0 1 1.437.992q.608.648.911 1.579.324.912.324 2.065a.68.68 0 0 1-.263.567q-.243.183-.709.182H80.62v-1.457h5.69l-.325.303q0-.931-.283-1.559a1.98 1.98 0 0 0-.79-.951q-.505-.344-1.275-.344-.85 0-1.458.405-.587.384-.91 1.113-.304.709-.304 1.701v.141q0 1.66.769 2.491.79.81 2.308.809.525 0 1.174-.121.669-.141 1.255-.466.425-.243.75-.202a.7.7 0 0 1 .506.223.85.85 0 0 1 .242.506.95.95 0 0 1-.121.587q-.141.303-.506.526a5.4 5.4 0 0 1-1.64.668 8 8 0 0 1-1.7.203m-1.376-11.54-1.964-2.834q-.224-.345-.182-.648.06-.304.283-.527.243-.222.547-.303a1 1 0 0 1 .627.04q.324.102.506.486l1.519 3.017q.162.324.06.587a.76.76 0 0 1-.364.405.87.87 0 0 1-.546.101q-.284-.04-.486-.324m11.985 11.54q-1.539 0-2.673-.628a4.4 4.4 0 0 1-1.76-1.781q-.63-1.175-.629-2.754 0-1.194.345-2.126a4.6 4.6 0 0 1 1.032-1.619 4.26 4.26 0 0 1 1.6-1.033q.93-.364 2.085-.364 1.538 0 2.672.627a4.4 4.4 0 0 1 1.762 1.782q.627 1.154.627 2.733 0 1.195-.364 2.146a4.5 4.5 0 0 1-1.013 1.64 4.6 4.6 0 0 1-1.599 1.033q-.93.344-2.085.344m0-1.924q.75 0 1.316-.364.567-.365.87-1.073.324-.728.324-1.802 0-1.62-.688-2.409-.688-.81-1.822-.81-.75 0-1.316.365-.567.344-.89 1.073-.305.708-.305 1.781 0 1.599.689 2.43.688.81 1.822.809"/><path stroke="#E74F2C" stroke-linecap="round" stroke-linejoin="round" stroke-width="5.905" d="M116.498 36v41.756a33.403 33.403 0 0 1-57.026 23.621 33.4 33.4 0 0 1-9.784-23.62V36L64.02 50.33a33.24 33.24 0 0 1 19.074-5.979c7.387 0 14.21 2.397 19.743 6.456z"/><path stroke="#E74F2C" stroke-linecap="round" stroke-linejoin="round" stroke-width="5.905" d="M41.337 90.283h20.878l-16.702 16.702m79.337-16.702h-20.878l16.702 16.702m-50.107-37.58v.042m25.053-.042v.042M78.918 90.283a4.176 4.176 0 1 0 8.351 0 4.176 4.176 0 0 0-8.351 0"/></svg>