<svg xmlns="http://www.w3.org/2000/svg" width="24" height="24" fill="none"><g clip-path="url(#a)"><path fill="#7B778D" d="M12 4c5.523 0 10 4.477 10 10s-4.477 10-10 10S2 19.523 2 14 6.477 4 12 4m0 2a8 8 0 1 0 0 16 8 8 0 0 0 0-16m2.8 9.857a1 1 0 1 1 1.4 1.428A5.98 5.98 0 0 1 12 19a5.98 5.98 0 0 1-4.2-1.715 1 1 0 0 1 1.4-1.428A3.98 3.98 0 0 0 12 17c1.09 0 2.077-.435 2.8-1.143M8.5 10a1.5 1.5 0 1 1 0 3 1.5 1.5 0 0 1 0-3m7 0a1.5 1.5 0 1 1 0 3 1.5 1.5 0 0 1 0-3"/></g><defs><clipPath id="a"><path fill="#fff" d="M0 0h24v24H0z"/></clipPath></defs></svg>