<svg xmlns="http://www.w3.org/2000/svg" width="16" height="16" fill="none"><g clip-path="url(#a)"><path fill="#fff" d="M5.574.526a7.91 7.91 0 0 0 .541 15.113 8.45 8.45 0 0 0 4.045.043A7.14 7.14 0 0 0 13.398 14a7.2 7.2 0 0 0 2-3.283 9.3 9.3 0 0 0 .2-4.197h-7.44v3.086h4.31a3.71 3.71 0 0 1-1.583 2.44 4.5 4.5 0 0 1-1.741.688 5.2 5.2 0 0 1-1.888 0 4.65 4.65 0 0 1-1.756-.767A4.9 4.9 0 0 1 3.687 9.54a4.8 4.8 0 0 1 0-3.079c.238-.7.63-1.337 1.148-1.864a4.65 4.65 0 0 1 4.681-1.222 4.3 4.3 0 0 1 1.705 1q.729-.725 1.455-1.454c.25-.261.523-.51.769-.777A7.7 7.7 0 0 0 10.9.574 8 8 0 0 0 5.574.526"/><path fill="#E33629" d="M5.574.526A8 8 0 0 1 10.9.572a7.7 7.7 0 0 1 2.544 1.578c-.25.267-.514.517-.769.777q-.728.727-1.454 1.448a4.3 4.3 0 0 0-1.705-1 4.65 4.65 0 0 0-4.682 1.217 4.9 4.9 0 0 0-1.148 1.864L1.095 4.45A7.94 7.94 0 0 1 5.574.526"/><path fill="#F8BD00" d="M.407 6.438c.14-.69.371-1.359.688-1.988l2.591 2.011a4.8 4.8 0 0 0 0 3.08q-1.295.999-2.591 2.01a7.9 7.9 0 0 1-.688-5.113"/><path fill="#587DBD" d="M8.159 6.519h7.44a9.3 9.3 0 0 1-.201 4.197 7.2 7.2 0 0 1-2 3.283c-.837-.653-1.677-1.3-2.513-1.953a3.72 3.72 0 0 0 1.582-2.442H8.16z"/><path fill="#319F43" d="M1.094 11.55q1.296-1 2.591-2.01c.334.98.97 1.83 1.815 2.428a4.65 4.65 0 0 0 1.76.76 5.2 5.2 0 0 0 1.888 0 4.5 4.5 0 0 0 1.74-.688c.837.653 1.677 1.3 2.513 1.953a7.14 7.14 0 0 1-3.237 1.683 8.45 8.45 0 0 1-4.045-.043 7.962 7.962 0 0 1-5.025-4.082"/></g><defs><clipPath id="a"><path fill="#fff" d="M0 0h16v16H0z"/></clipPath></defs></svg>