<svg xmlns="http://www.w3.org/2000/svg" width="166" height="166" fill="none"><rect width="165.337" height="165.337" fill="#FADCD5" rx="19.402"/><path fill="#363344" d="M68.092 145.58q-2.227 0-3.826-.891a6.15 6.15 0 0 1-2.43-2.551q-.85-1.66-.85-3.907 0-1.681.486-3.017.486-1.356 1.397-2.308a5.9 5.9 0 0 1 2.227-1.478q1.336-.526 2.996-.526 1.113 0 2.186.283a6.5 6.5 0 0 1 1.883.81q.426.264.567.648.142.364.06.729a1.14 1.14 0 0 1-.343.587 1 1 0 0 1-.628.283q-.364.02-.81-.263a4.5 4.5 0 0 0-1.356-.587 6 6 0 0 0-1.478-.182q-1.437 0-2.43.587-.99.586-1.498 1.701-.506 1.113-.506 2.733 0 1.599.506 2.733.507 1.133 1.498 1.721.993.587 2.43.587.77 0 1.518-.182.75-.203 1.418-.608.445-.263.79-.222a.95.95 0 0 1 .606.242q.243.224.324.567.08.324-.04.689-.122.344-.486.607-.81.587-1.944.911a8.6 8.6 0 0 1-2.267.304m8.132-.041q-.607 0-.931-.324-.324-.344-.324-.971v-12.026q0-.628.324-.952t.931-.324.932.324q.344.324.344.952v5.243h-.284q.445-1.073 1.377-1.619.951-.567 2.146-.567t1.964.445 1.154 1.357q.385.89.385 2.267v4.9q0 .627-.325.971-.323.324-.93.324-.609 0-.952-.324-.324-.344-.324-.971v-4.778q0-1.155-.446-1.681-.424-.526-1.336-.526-1.113 0-1.781.709-.648.688-.648 1.842v4.434q0 1.295-1.276 1.295m15.103.041q-1.539 0-2.673-.628a4.4 4.4 0 0 1-1.761-1.781q-.628-1.175-.628-2.754 0-1.194.344-2.126a4.6 4.6 0 0 1 1.033-1.619 4.26 4.26 0 0 1 1.6-1.033q.93-.364 2.085-.364 1.538 0 2.672.627a4.4 4.4 0 0 1 1.761 1.782q.628 1.154.628 2.733 0 1.195-.365 2.146a4.5 4.5 0 0 1-1.012 1.64 4.6 4.6 0 0 1-1.6 1.033q-.93.344-2.084.344m0-1.924q.749 0 1.316-.364.566-.365.87-1.073.324-.728.324-1.802 0-1.62-.688-2.409-.69-.81-1.822-.81-.75 0-1.316.365-.567.344-.891 1.073-.304.708-.304 1.781 0 1.599.688 2.43.69.81 1.823.809m.951-9.616q-.203.283-.486.324a.87.87 0 0 1-.546-.101.86.86 0 0 1-.385-.405q-.101-.263.06-.587l1.54-3.017q.181-.384.485-.486a1 1 0 0 1 .628-.04q.324.081.546.303a.87.87 0 0 1 .284.547q.06.304-.162.628z"/><path stroke="#E74F2C" stroke-linecap="round" stroke-linejoin="round" stroke-width="5.905" d="M77.045 36.01h9.56m28.682 33.584q-4.78 38.382-23.902 38.382h-19.12q-19.122 0-23.902-38.382"/><path stroke="#E74F2C" stroke-linecap="round" stroke-linejoin="round" stroke-width="5.905" d="M81.825 98.38v9.595m-9.56-43.179v.048m19.12-.048v.048m-14.34 23.94q0 4.798 4.78 4.798c4.78 0 4.78-1.597 4.78-4.797zM48.364 31.213l28.68 4.654-29.818 32.087a4.864 4.864 0 0 1-6.74.532 4.573 4.573 0 0 1-1.563-4.577zm66.923 0-28.682 4.654 29.82 32.087c1.711 1.957 4.727 2.197 6.74.532a4.567 4.567 0 0 0 1.563-4.577z"/></svg>