<svg xmlns="http://www.w3.org/2000/svg" width="28" height="24" fill="none"><path stroke="#FA7353" stroke-linecap="round" stroke-linejoin="round" stroke-width="3" d="M12.667 2.813h2.666m8 9.187q-1.332 10.5-6.666 10.5h-5.334Q6 22.5 4.667 12"/><path stroke="#FA7353" stroke-linecap="round" stroke-linejoin="round" stroke-width="3" d="M14 19.875V22.5m-2.667-11.812v.013m5.334-.014v.014m-4 6.549q0 1.312 1.333 1.312c1.333 0 1.333-.437 1.333-1.312zm-8-15.75 8 1.273-8.318 8.778a1.375 1.375 0 0 1-1.88.146 1.228 1.228 0 0 1-.436-1.252zm18.667 0-8 1.273 8.317 8.778a1.38 1.38 0 0 0 1.88.146c.185-.148.324-.343.4-.565.078-.221.09-.46.036-.687z"/></svg>