<svg xmlns="http://www.w3.org/2000/svg" width="18" height="18" fill="none"><path fill="#130F26" fill-rule="evenodd" d="M12.433 16.777H5.815c-2.581 0-4.315-1.812-4.315-4.507V6.034c0-2.695 1.734-4.506 4.315-4.506h2.804a.563.563 0 0 1 0 1.125H5.815c-1.938 0-3.19 1.327-3.19 3.381v6.236c0 2.054 1.252 3.382 3.19 3.382h6.618c1.938 0 3.19-1.328 3.19-3.382V9.249a.563.563 0 0 1 1.125 0v3.02c0 2.696-1.735 4.508-4.315 4.508" clip-rule="evenodd"/><path fill="#130F26" fill-rule="evenodd" d="M6.65 11.571h2.233c.285 0 .552-.11.754-.312l5.632-5.632c.23-.23.358-.538.358-.865 0-.328-.127-.636-.358-.867l-.913-.913a1.23 1.23 0 0 0-1.733 0L7.018 8.587a1.06 1.06 0 0 0-.311.726zm2.233 1.125h-2.81a.56.56 0 0 1-.562-.576l.07-2.835a2.18 2.18 0 0 1 .641-1.494h.001l5.605-5.605a2.355 2.355 0 0 1 3.323 0l.913.913c.445.444.69 1.034.688 1.663a2.33 2.33 0 0 1-.688 1.661l-5.632 5.632a2.18 2.18 0 0 1-1.549.641" clip-rule="evenodd"/><path fill="#130F26" fill-rule="evenodd" d="M14.798 7.438a.56.56 0 0 1-.397-.165l-3.425-3.425a.563.563 0 0 1 .795-.796l3.425 3.426a.562.562 0 0 1-.398.96" clip-rule="evenodd"/></svg>