<svg xmlns="http://www.w3.org/2000/svg" width="52" height="52" fill="none"><rect width="52" height="52" fill="#FF5B35" rx="15.167"/><path fill="#EAE8F0" fill-rule="evenodd" d="M18.128 16h15.744c1.176 0 2.128.981 2.128 2.192v1.532c0 .587-.23 1.152-.637 1.563l-6.505 6.58a.59.59 0 0 1-.422.177l-5.447-.017a.6.6 0 0 1-.437-.195l-5.977-6.575a2.23 2.23 0 0 1-.575-1.5v-1.564c0-1.21.952-2.193 2.128-2.193m5.152 13.824 4.855.015a.56.56 0 0 1 .547.565v2.731a.8.8 0 0 1-.453.725l-4.406 2.069a.76.76 0 0 1-.739-.055.8.8 0 0 1-.355-.67V30.39c0-.312.247-.566.551-.565" clip-rule="evenodd"/></svg>