<svg xmlns="http://www.w3.org/2000/svg" width="16" height="13" fill="none"><path fill="#E74F2C" d="M8.429 2.572c0-.958.673-1.858 1.642-1.858.97 0 1.643.9 1.643 1.858 0 .957-.672 1.857-1.643 1.857-.97 0-1.642-.9-1.642-1.858m-7.715 2c0-.958.673-1.858 1.643-1.858S4 3.614 4 4.572c0 .957-.673 1.857-1.643 1.857S.714 5.529.714 4.572M8 5.286a4.57 4.57 0 0 0-4.562 4.86c.056.9.569 1.555 1.243 1.97.665.41 1.502.598 2.295.598h2.048c.794 0 1.63-.189 2.295-.598.675-.415 1.187-1.07 1.243-1.97q.01-.143.01-.289A4.57 4.57 0 0 0 8 5.286m4-.714c0-.958.672-1.858 1.643-1.858.97 0 1.643.9 1.643 1.858 0 .957-.673 1.857-1.643 1.857S12 5.529 12 4.572m-7.714-2c0-.958.673-1.858 1.643-1.858s1.642.9 1.642 1.858c0 .957-.673 1.857-1.642 1.857-.97 0-1.643-.9-1.643-1.858"/></svg>