<svg xmlns="http://www.w3.org/2000/svg" width="22" height="22" fill="none"><path fill="#58546A" fill-rule="evenodd" d="M8.947 14.316a.68.68 0 0 1-.485-.202 3.55 3.55 0 0 1-1.05-2.529c0-1.98 1.61-3.59 3.588-3.59.951 0 1.875.384 2.534 1.054a.687.687 0 0 1-.98.965A2.2 2.2 0 0 0 11 9.37c-1.22 0-2.213.993-2.213 2.215 0 .588.23 1.141.646 1.558a.687.687 0 0 1-.486 1.173M11.52 15.117a.688.688 0 0 1-.122-1.364 2.21 2.21 0 0 0 1.771-1.776.688.688 0 0 1 1.354.244 3.59 3.59 0 0 1-2.88 2.885 1 1 0 0 1-.123.01" clip-rule="evenodd"/><mask id="a" width="16" height="14" x="1" y="4" maskUnits="userSpaceOnUse" style="mask-type:luminance"><path fill="#fff" fill-rule="evenodd" d="M1.833 4.24H16.58v12.923H1.833z" clip-rule="evenodd"/></mask><g mask="url(#a)"><path fill="#58546A" fill-rule="evenodd" d="M6.1 17.163a.7.7 0 0 1-.425-.147c-1.55-1.217-2.86-3.002-3.785-5.16a.68.68 0 0 1 0-.544c.936-2.167 2.254-3.96 3.812-5.186 3.177-2.515 7.407-2.523 10.616.018a.688.688 0 1 1-.854 1.078c-2.718-2.152-6.22-2.145-8.91-.016-1.317 1.036-2.447 2.544-3.281 4.38.826 1.824 1.946 3.323 3.252 4.348a.687.687 0 0 1-.425 1.229" clip-rule="evenodd"/></g><mask id="b" width="14" height="11" x="7" y="8" maskUnits="userSpaceOnUse" style="mask-type:luminance"><path fill="#fff" fill-rule="evenodd" d="M7.991 8.013h12.176v10.952H7.99z" clip-rule="evenodd"/></mask><g mask="url(#b)"><path fill="#58546A" fill-rule="evenodd" d="M11 18.965a8 8 0 0 1-2.538-.413.688.688 0 0 1 .434-1.305A6.6 6.6 0 0 0 11 17.59c3.143 0 6.014-2.238 7.728-6.007a13.3 13.3 0 0 0-1.45-2.47.688.688 0 0 1 1.099-.826c.663.88 1.246 1.9 1.733 3.023a.68.68 0 0 1 0 .545c-1.921 4.453-5.327 7.11-9.11 7.11" clip-rule="evenodd"/></g><mask id="c" width="16" height="17" x="3" y="3" maskUnits="userSpaceOnUse" style="mask-type:luminance"><path fill="#fff" fill-rule="evenodd" d="M3.083 3.667h15.834v15.834H3.083z" clip-rule="evenodd"/></mask><g mask="url(#c)"><path fill="#58546A" fill-rule="evenodd" d="M3.77 19.5a.687.687 0 0 1-.486-1.173l14.46-14.46a.687.687 0 1 1 .972.974L4.256 19.299a.68.68 0 0 1-.485.202" clip-rule="evenodd"/></g></svg>