<svg xmlns="http://www.w3.org/2000/svg" width="22" height="22" fill="none"><g clip-path="url(#a)"><path fill="url(#b)" d="M16.844 0H5.156A5.156 5.156 0 0 0 0 5.156v11.688A5.156 5.156 0 0 0 5.156 22h11.688A5.156 5.156 0 0 0 22 16.844V5.156A5.156 5.156 0 0 0 16.844 0"/><path fill="url(#c)" d="M16.844 0H5.156A5.156 5.156 0 0 0 0 5.156v11.688A5.156 5.156 0 0 0 5.156 22h11.688A5.156 5.156 0 0 0 22 16.844V5.156A5.156 5.156 0 0 0 16.844 0"/><path fill="#fff" d="M11 2.406c-2.333 0-2.626.01-3.543.052-.915.042-1.54.187-2.085.4a4.2 4.2 0 0 0-1.523.99 4.2 4.2 0 0 0-.992 1.523c-.213.546-.358 1.17-.399 2.085-.041.917-.052 1.21-.052 3.544s.01 2.626.052 3.543c.042.915.187 1.54.4 2.085a4.2 4.2 0 0 0 .99 1.523c.478.478.958.772 1.522.992.547.212 1.172.357 2.087.399s1.209.052 3.543.052 2.626-.01 3.543-.052c.914-.042 1.54-.187 2.086-.4a4.2 4.2 0 0 0 1.522-.991c.478-.478.771-.957.992-1.522.21-.547.356-1.172.399-2.086.041-.917.052-1.209.052-3.543s-.011-2.627-.052-3.543c-.043-.915-.188-1.54-.4-2.086a4.2 4.2 0 0 0-.991-1.523 4.2 4.2 0 0 0-1.522-.99c-.548-.213-1.173-.358-2.088-.4-.916-.042-1.208-.052-3.543-.052zm-.77 1.549H11c2.295 0 2.567.008 3.473.05.838.038 1.293.178 1.596.295.401.156.687.342.988.643.3.3.487.587.643.988.117.303.258.758.296 1.596.04.906.05 1.178.05 3.471s-.01 2.566-.05 3.472c-.039.837-.179 1.292-.296 1.595a2.66 2.66 0 0 1-.643.987c-.301.3-.587.487-.988.643-.303.118-.758.258-1.596.296-.905.041-1.178.05-3.472.05s-2.567-.009-3.473-.05c-.838-.039-1.292-.179-1.596-.296a2.7 2.7 0 0 1-.988-.643c-.3-.3-.487-.587-.643-.988-.118-.302-.258-.757-.296-1.595-.041-.906-.05-1.178-.05-3.473s.009-2.566.05-3.472c.038-.837.178-1.292.296-1.595.156-.401.342-.688.643-.988s.587-.487.988-.644c.303-.118.758-.257 1.596-.296.793-.036 1.1-.046 2.702-.048zm5.358 1.427a1.031 1.031 0 1 0 0 2.063 1.031 1.031 0 0 0 0-2.064m-4.587 1.205a4.413 4.413 0 1 0 0 8.827 4.413 4.413 0 0 0 0-8.827m0 1.548a2.865 2.865 0 1 1 0 5.73 2.865 2.865 0 0 1 0-5.73"/></g><defs><radialGradient id="b" cx="0" cy="0" r="1" gradientTransform="matrix(0 -21.8036 20.2791 0 5.844 23.694)" gradientUnits="userSpaceOnUse"><stop stop-color="#FD5"/><stop offset=".1" stop-color="#FD5"/><stop offset=".5" stop-color="#FF543E"/><stop offset="1" stop-color="#C837AB"/></radialGradient><radialGradient id="c" cx="0" cy="0" r="1" gradientTransform="rotate(78.681 -2.81 -1.456)scale(9.74634 40.1747)" gradientUnits="userSpaceOnUse"><stop stop-color="#3771C8"/><stop offset=".128" stop-color="#3771C8"/><stop offset="1" stop-color="#60F" stop-opacity="0"/></radialGradient><clipPath id="a"><path fill="#fff" d="M0 0h22v22H0z"/></clipPath></defs></svg>