<svg xmlns="http://www.w3.org/2000/svg" width="24" height="24" fill="none"><path fill="#AE63FF" fill-rule="evenodd" d="M15.85 2.5c.63 0 1.26.09 1.86.29 3.69 1.2 5.02 5.25 3.91 8.79a12.7 12.7 0 0 1-3.01 4.81 38.5 38.5 0 0 1-6.33 4.96l-.25.15-.26-.16a38 38 0 0 1-6.37-4.96 12.9 12.9 0 0 1-3.01-4.8c-1.13-3.54.2-7.59 3.93-8.81.29-.1.59-.17.89-.21h.12q.42-.06.84-.06h.11q.945.03 1.83.33h.06q.06.03.09.06c.22.07.43.15.63.26l.38.17c.092.05.195.124.284.19.056.04.107.077.146.1l.05.03c.085.05.175.102.25.16a6.26 6.26 0 0 1 3.85-1.3m2.66 7.2c.41-.01.76-.34.79-.76v-.12a3.3 3.3 0 0 0-2.11-3.16.8.8 0 0 0-1.01.5c-.14.42.08.88.5 1.03.64.24 1.07.87 1.07 1.57v.03a.86.86 0 0 0 .19.62c.14.17.35.27.57.29" clip-rule="evenodd"/></svg>