<svg xmlns="http://www.w3.org/2000/svg" width="24" height="24" fill="none"><mask id="a" width="21" height="20" x="2" y="3" maskUnits="userSpaceOnUse" style="mask-type:luminance"><path fill="#fff" fill-rule="evenodd" d="M2 3h20.473v19.501H2z" clip-rule="evenodd"/></mask><g mask="url(#a)"><path fill="#4D4A5F" fill-rule="evenodd" d="M3.824 12.123c1.402 4.362 6.94 7.89 8.413 8.762 1.477-.882 7.056-4.448 8.413-8.758.89-2.786.064-6.315-3.222-7.374-1.592-.51-3.45-.2-4.731.792a.75.75 0 0 1-.91.006 5.23 5.23 0 0 0-4.75-.798c-3.28 1.058-4.104 4.587-3.213 7.37m8.414 10.378a.75.75 0 0 1-.36-.09c-.312-.172-7.685-4.236-9.482-9.83h-.001c-1.128-3.523.128-7.949 4.183-9.256a6.73 6.73 0 0 1 5.657.714c1.626-1.028 3.786-1.312 5.652-.714 4.059 1.31 5.319 5.734 4.192 9.255-1.74 5.53-9.166 9.655-9.481 9.828a.74.74 0 0 1-.36.093" clip-rule="evenodd"/></g><path fill="#4D4A5F" fill-rule="evenodd" d="M18.154 10.625a.75.75 0 0 1-.747-.689 2.02 2.02 0 0 0-1.4-1.769.75.75 0 0 1 .46-1.428 3.525 3.525 0 0 1 2.436 3.075.75.75 0 0 1-.75.811" clip-rule="evenodd"/></svg>