<svg xmlns="http://www.w3.org/2000/svg" width="22" height="22" fill="none"><path fill="#130F26" fill-rule="evenodd" d="M11.23 7.792a1.605 1.605 0 1 0 1.604 1.605c0-.886-.72-1.606-1.604-1.606m0 4.583a2.98 2.98 0 0 1-2.98-2.978 2.983 2.983 0 0 1 2.98-2.98 2.983 2.983 0 0 1 2.979 2.98 2.98 2.98 0 0 1-2.98 2.978" clip-rule="evenodd"/><mask id="a" width="16" height="19" x="3" y="1" maskUnits="userSpaceOnUse" style="mask-type:luminance"><path fill="#fff" fill-rule="evenodd" d="M3.667 1.833H18.79v17.875H3.667z" clip-rule="evenodd"/></mask><g mask="url(#a)"><path fill="#130F26" fill-rule="evenodd" d="M11.229 3.208c-3.412 0-6.188 2.803-6.188 6.246 0 4.38 5.156 8.648 6.188 8.876 1.032-.229 6.187-4.497 6.187-8.876 0-3.443-2.775-6.246-6.187-6.246m0 16.5c-1.645 0-7.563-5.09-7.563-10.254 0-4.203 3.393-7.62 7.563-7.62s7.562 3.418 7.562 7.62c0 5.165-5.918 10.254-7.562 10.254" clip-rule="evenodd"/></g></svg>