<svg xmlns="http://www.w3.org/2000/svg" width="16" height="19" fill="none"><path fill="#E74F2C" fill-rule="evenodd" d="M8.23 6.792a1.605 1.605 0 1 0 1.604 1.605c0-.885-.72-1.605-1.604-1.605m0 4.583a2.98 2.98 0 0 1-2.98-2.978 2.983 2.983 0 0 1 2.98-2.98 2.983 2.983 0 0 1 2.979 2.98 2.98 2.98 0 0 1-2.98 2.978" clip-rule="evenodd"/><mask id="a" width="16" height="19" x="0" y="0" maskUnits="userSpaceOnUse" style="mask-type:luminance"><path fill="#fff" fill-rule="evenodd" d="M.667.833H15.79V18.71H.667z" clip-rule="evenodd"/></mask><g mask="url(#a)"><path fill="#E74F2C" fill-rule="evenodd" d="M8.229 2.209c-3.412 0-6.188 2.802-6.188 6.245 0 4.38 5.155 8.648 6.188 8.876 1.032-.228 6.187-4.496 6.187-8.876 0-3.443-2.776-6.246-6.187-6.246m0 16.5c-1.645 0-7.563-5.09-7.563-10.255 0-4.202 3.393-7.62 7.563-7.62s7.562 3.418 7.562 7.62c0 5.165-5.918 10.255-7.562 10.255" clip-rule="evenodd"/></g></svg>