<svg xmlns="http://www.w3.org/2000/svg" width="18" height="18" fill="none"><path fill="#130F26" fill-rule="evenodd" d="M8.49 16.5H4.824A3.33 3.33 0 0 1 1.5 13.174V4.827A3.33 3.33 0 0 1 4.825 1.5h3.656a3.33 3.33 0 0 1 3.327 3.327v.699a.563.563 0 0 1-1.125 0v-.699a2.204 2.204 0 0 0-2.202-2.202H4.825c-1.213 0-2.2.987-2.2 2.202v8.347c0 1.214.987 2.201 2.2 2.201h3.664a2.196 2.196 0 0 0 2.194-2.193v-.707a.563.563 0 0 1 1.125 0v.707c0 1.83-1.49 3.318-3.319 3.318" clip-rule="evenodd"/><mask id="a" width="11" height="2" x="6" y="8" maskUnits="userSpaceOnUse" style="mask-type:luminance"><path fill="#fff" fill-rule="evenodd" d="M6.747 8.438h10.156v1.124H6.747z" clip-rule="evenodd"/></mask><g mask="url(#a)"><path fill="#130F26" fill-rule="evenodd" d="M16.34 9.563H7.31a.563.563 0 0 1 0-1.126h9.03a.563.563 0 0 1 0 1.126" clip-rule="evenodd"/></g><mask id="b" width="4" height="6" x="13" y="6" maskUnits="userSpaceOnUse" style="mask-type:luminance"><path fill="#fff" fill-rule="evenodd" d="M13.582 6.251h3.32v5.498h-3.32z" clip-rule="evenodd"/></mask><g mask="url(#b)"><path fill="#130F26" fill-rule="evenodd" d="M14.145 11.75a.562.562 0 0 1-.397-.96l1.795-1.79-1.795-1.788a.562.562 0 1 1 .793-.796l2.196 2.186a.56.56 0 0 1 0 .796l-2.196 2.187a.56.56 0 0 1-.396.164" clip-rule="evenodd"/></g></svg>