<svg xmlns="http://www.w3.org/2000/svg" width="24" height="24" fill="none"><g clip-path="url(#a)"><path fill="url(#b)" d="M12 0C5.24 0 0 4.952 0 11.64c0 3.499 1.434 6.521 3.769 8.61a.96.96 0 0 1 .322.684l.065 2.134a.96.96 0 0 0 1.348.85l2.381-1.052a.96.96 0 0 1 .641-.047c1.095.3 2.26.46 3.474.46 6.76 0 12-4.95 12-11.64C24 4.953 18.76 0 12 0"/><path fill="#fff" d="m4.794 15.044 3.525-5.592a1.8 1.8 0 0 1 2.602-.48l2.804 2.102a.72.72 0 0 0 .867-.002l3.787-2.874c.505-.384 1.165.221.827.758l-3.525 5.593a1.8 1.8 0 0 1-2.603.48l-2.804-2.103a.72.72 0 0 0-.867.002l-3.786 2.874c-.506.384-1.166-.221-.827-.758"/></g><defs><linearGradient id="b" x1="3076.97" x2="-2153.11" y1="2387.16" y2="2387.16" gradientUnits="userSpaceOnUse"><stop offset=".229" stop-color="#09F"/><stop offset=".444" stop-color="#A033FF"/><stop offset=".659" stop-color="#FF5280"/><stop offset=".819" stop-color="#FF7061"/></linearGradient><clipPath id="a"><path fill="#fff" d="M0 0h24v24H0z"/></clipPath></defs></svg>