<svg xmlns="http://www.w3.org/2000/svg" width="38" height="39" fill="none"><rect width="37.583" height="37.886" y=".557" fill="#FF5B35" rx="15.167"/><mask id="a" width="15" height="16" x="11" y="11" maskUnits="userSpaceOnUse" style="mask-type:luminance"><path fill="#fff" fill-rule="evenodd" d="M11.364 11.065h14.083v15.212H11.364z" clip-rule="evenodd"/></mask><g mask="url(#a)"><path fill="#EAE8F0" fill-rule="evenodd" d="M18.406 12.236c-3.285 0-5.958 2.886-5.958 6.435s2.673 6.435 5.958 6.435c3.284 0 5.956-2.887 5.956-6.435 0-3.549-2.672-6.435-5.956-6.435m0 14.041c-3.884 0-7.043-3.412-7.043-7.606 0-4.195 3.16-7.606 7.042-7.606 3.883 0 7.042 3.411 7.042 7.606 0 4.194-3.159 7.606-7.042 7.606" clip-rule="evenodd"/></g><mask id="b" width="5" height="5" x="22" y="23" maskUnits="userSpaceOnUse" style="mask-type:luminance"><path fill="#fff" fill-rule="evenodd" d="M22.383 23.333h3.633v3.917h-3.633z" clip-rule="evenodd"/></mask><g mask="url(#b)"><path fill="#EAE8F0" fill-rule="evenodd" d="M25.473 27.25a.52.52 0 0 1-.383-.172l-2.548-2.744a.62.62 0 0 1 0-.829.514.514 0 0 1 .766-.002l2.549 2.746c.212.229.212.599 0 .828a.52.52 0 0 1-.384.172" clip-rule="evenodd"/></g></svg>