<svg xmlns="http://www.w3.org/2000/svg" width="21" height="21" fill="none"><path fill="#01A355" fill-rule="evenodd" d="M6.345 2.354c-2.424 0-3.991 1.661-3.991 4.232v7.828c0 2.571 1.567 4.232 3.991 4.232h8.307c2.426 0 3.994-1.661 3.994-4.232V6.586c0-2.571-1.568-4.232-3.993-4.232zm8.307 17.73H6.345c-3.247 0-5.428-2.28-5.428-5.67V6.586c0-3.39 2.18-5.67 5.428-5.67h8.308c3.248 0 5.43 2.28 5.43 5.67v7.828c0 3.39-2.182 5.67-5.43 5.67" clip-rule="evenodd"/><path fill="#01A355" fill-rule="evenodd" d="M9.363 13.493a.72.72 0 0 1-.508-.211L6.58 11.008a.718.718 0 1 1 1.016-1.016l1.767 1.765 4.04-4.039a.718.718 0 1 1 1.016 1.016L9.87 13.282a.71.71 0 0 1-.508.21" clip-rule="evenodd"/></svg>