<svg xmlns="http://www.w3.org/2000/svg" width="70" height="25" fill="none"><rect width="19.564" height="19.564" x="1.012" y="4.012" stroke="#B8B4C8" stroke-width="2.024" rx="3.71"/><path fill="#7B778D" d="M30.362 17.15q-1.372 0-2.394-.616-1.008-.63-1.568-1.764-.546-1.134-.546-2.688 0-1.176.308-2.1.322-.939.91-1.582a3.9 3.9 0 0 1 1.414-1.008q.84-.364 1.876-.364 1.4 0 2.408.616 1.022.615 1.568 1.75.56 1.12.56 2.674 0 1.176-.322 2.114a4.6 4.6 0 0 1-.91 1.596q-.588.658-1.428 1.022-.825.35-1.876.35m0-1.022q1.065 0 1.792-.476.742-.476 1.134-1.386t.392-2.184q0-1.918-.868-2.968-.854-1.064-2.45-1.064-1.035 0-1.778.476-.728.476-1.12 1.386-.392.895-.392 2.17 0 1.904.868 2.982.868 1.065 2.422 1.064m6.994 3.514q-.279 0-.42-.154-.14-.14-.14-.42v-8.372q0-.28.14-.42.142-.154.406-.154.28 0 .42.154.154.14.154.42v1.33l-.154-.196q.225-.798.882-1.26.672-.476 1.596-.476.91 0 1.582.434.687.42 1.05 1.218.378.784.378 1.876 0 1.078-.378 1.876a2.83 2.83 0 0 1-1.036 1.218q-.672.434-1.596.434t-1.582-.462a2.36 2.36 0 0 1-.896-1.26h.168v3.64q.001.279-.154.42a.57.57 0 0 1-.42.154m2.646-3.402q.645 0 1.106-.308.477-.309.728-.896.267-.588.266-1.414.001-1.274-.574-1.946-.56-.672-1.526-.672-.63 0-1.106.308-.475.294-.742.882-.252.573-.252 1.428 0 1.26.574 1.946.575.672 1.526.672m7.618.91q-.798 0-1.344-.28a1.88 1.88 0 0 1-.798-.84q-.266-.56-.266-1.358v-3.57h-.938q-.238 0-.364-.112a.45.45 0 0 1-.126-.336q0-.21.126-.322.127-.112.364-.112h.938V8.61q0-.28.154-.42a.57.57 0 0 1 .42-.154q.267 0 .406.154.154.14.154.42v1.61h1.764q.238 0 .364.112.126.111.126.322 0 .21-.126.336-.126.112-.364.112h-1.764v3.458q0 .798.336 1.218.336.406 1.092.406.267 0 .448-.056.196-.056.322-.056a.23.23 0 0 1 .21.084q.084.098.084.336a.7.7 0 0 1-.07.308.34.34 0 0 1-.21.196q-.168.056-.448.098-.265.056-.49.056m2.807-.056q-.28 0-.42-.154-.14-.168-.14-.462v-5.726q0-.294.14-.448t.42-.154q.266 0 .42.154t.154.448v5.726q0 .294-.154.462-.141.154-.42.154m0-8.512q-.351 0-.546-.182a.7.7 0 0 1-.196-.518q0-.336.196-.504.195-.183.546-.182.363 0 .546.182.196.168.196.504a.7.7 0 0 1-.196.518q-.183.182-.546.182m5.522 8.568q-.994 0-1.722-.434a3 3 0 0 1-1.134-1.218q-.393-.798-.392-1.876 0-.812.224-1.456.223-.658.658-1.12.434-.462 1.022-.7a3.5 3.5 0 0 1 1.344-.252q.993 0 1.722.434.727.434 1.12 1.232.406.784.406 1.862 0 .812-.224 1.456a3.2 3.2 0 0 1-.658 1.12q-.435.462-1.036.714a3.5 3.5 0 0 1-1.33.238m0-.91q.63 0 1.106-.308.476-.309.728-.896.266-.588.266-1.414 0-1.274-.574-1.946-.56-.672-1.526-.672-.645 0-1.12.308-.462.294-.728.882-.252.573-.252 1.428 0 1.26.574 1.946.573.672 1.526.672m5.51.882q-.279 0-.42-.154-.139-.154-.14-.434v-5.838q.001-.28.14-.42.141-.154.407-.154t.406.154q.154.14.154.42V11.9l-.154-.168q.294-.811.952-1.218.672-.42 1.54-.42.812 0 1.344.294.546.294.812.896.266.588.266 1.498v3.752q0 .28-.154.434-.14.154-.406.154-.28 0-.434-.154-.14-.154-.14-.434v-3.682q0-.953-.378-1.386-.364-.448-1.176-.448-.938 0-1.498.588-.546.574-.546 1.54v3.388q0 .588-.574.588"/></svg>