<svg xmlns="http://www.w3.org/2000/svg" width="49" height="49" fill="none"><circle cx="24.5" cy="24.5" r="24.5" fill="#FFDAD1"/><mask id="a" width="17" height="9" x="16" y="27" maskUnits="userSpaceOnUse" style="mask-type:luminance"><path fill="#fff" fill-rule="evenodd" d="M16.124 27.244h16.585v8.107H16.124z" clip-rule="evenodd"/></mask><g mask="url(#a)"><path fill="#FA7353" fill-rule="evenodd" d="M24.417 28.893c-4.46 0-6.722.805-6.722 2.393 0 1.603 2.261 2.416 6.722 2.416 4.46 0 6.721-.805 6.721-2.393 0-1.603-2.26-2.416-6.72-2.416m0 6.458c-2.05 0-8.293 0-8.293-4.064 0-3.624 4.734-4.043 8.293-4.043 2.051 0 8.292 0 8.292 4.064 0 3.624-4.733 4.043-8.292 4.043" clip-rule="evenodd"/></g><mask id="b" width="12" height="13" x="18" y="13" maskUnits="userSpaceOnUse" style="mask-type:luminance"><path fill="#fff" fill-rule="evenodd" d="M18.856 13.507h11.12V25.18h-11.12z" clip-rule="evenodd"/></mask><g mask="url(#b)"><path fill="#FA7353" fill-rule="evenodd" d="M24.417 15.077c-2.242 0-4.065 1.914-4.065 4.267-.008 2.346 1.803 4.26 4.035 4.268l.03.785v-.785c2.24 0 4.064-1.915 4.064-4.268s-1.823-4.267-4.064-4.267m0 10.104h-.033c-3.06-.01-5.538-2.63-5.527-5.84 0-3.216 2.494-5.834 5.56-5.834s5.559 2.618 5.559 5.837c0 3.22-2.493 5.837-5.559 5.837" clip-rule="evenodd"/></g></svg>